<svg xmlns="http://www.w3.org/2000/svg" xmlns:xlink="http://www.w3.org/1999/xlink" width="500" zoomAndPan="magnify" viewBox="0 0 375 374.999991" height="500" preserveAspectRatio="xMidYMid meet" version="1.0"><defs><g/><clipPath id="0cd76bf8b8"><path d="M 83 263 L 86 263 L 86 266 L 83 266 Z M 83 263 " clip-rule="nonzero"/></clipPath><clipPath id="fb24a969e3"><path d="M 25.984375 90.257812 L 148.367188 51.914062 L 204.652344 231.554688 L 82.269531 269.898438 Z M 25.984375 90.257812 " clip-rule="nonzero"/></clipPath><clipPath id="c88713bc60"><path d="M 25.984375 90.257812 L 148.367188 51.914062 L 204.652344 231.554688 L 82.269531 269.898438 Z M 25.984375 90.257812 " clip-rule="nonzero"/></clipPath><clipPath id="7e6a2b10c7"><path d="M 79 123 L 166 123 L 166 269 L 79 269 Z M 79 123 " clip-rule="nonzero"/></clipPath><clipPath id="1ecc3d9a2e"><path d="M 25.984375 90.257812 L 148.367188 51.914062 L 204.652344 231.554688 L 82.269531 269.898438 Z M 25.984375 90.257812 " clip-rule="nonzero"/></clipPath><clipPath id="8be3648b71"><path d="M 25.984375 90.257812 L 148.367188 51.914062 L 204.652344 231.554688 L 82.269531 269.898438 Z M 25.984375 90.257812 " clip-rule="nonzero"/></clipPath><clipPath id="7f538efa38"><path d="M 154 128 L 161 128 L 161 135 L 154 135 Z M 154 128 " clip-rule="nonzero"/></clipPath><clipPath id="6e9b527297"><path d="M 25.984375 90.257812 L 148.367188 51.914062 L 204.652344 231.554688 L 82.269531 269.898438 Z M 25.984375 90.257812 " clip-rule="nonzero"/></clipPath><clipPath id="2837ad415c"><path d="M 25.984375 90.257812 L 148.367188 51.914062 L 204.652344 231.554688 L 82.269531 269.898438 Z M 25.984375 90.257812 " clip-rule="nonzero"/></clipPath><clipPath id="edbb8b41d0"><path d="M 132 57 L 170 57 L 170 153 L 132 153 Z M 132 57 " clip-rule="nonzero"/></clipPath><clipPath id="0ff8a6c2b5"><path d="M 25.984375 90.257812 L 148.367188 51.914062 L 204.652344 231.554688 L 82.269531 269.898438 Z M 25.984375 90.257812 " clip-rule="nonzero"/></clipPath><clipPath id="869a4d9aa8"><path d="M 25.984375 90.257812 L 148.367188 51.914062 L 204.652344 231.554688 L 82.269531 269.898438 Z M 25.984375 90.257812 " clip-rule="nonzero"/></clipPath><clipPath id="a60b0138e3"><path d="M 159 113 L 166 113 L 166 143 L 159 143 Z M 159 113 " clip-rule="nonzero"/></clipPath><clipPath id="9d1e58f896"><path d="M 25.984375 90.257812 L 148.367188 51.914062 L 204.652344 231.554688 L 82.269531 269.898438 Z M 25.984375 90.257812 " clip-rule="nonzero"/></clipPath><clipPath id="3f7157c0d4"><path d="M 25.984375 90.257812 L 148.367188 51.914062 L 204.652344 231.554688 L 82.269531 269.898438 Z M 25.984375 90.257812 " clip-rule="nonzero"/></clipPath><clipPath id="a7c122debe"><path d="M 144 114 L 152 114 L 152 141 L 144 141 Z M 144 114 " clip-rule="nonzero"/></clipPath><clipPath id="85f641d2cf"><path d="M 25.984375 90.257812 L 148.367188 51.914062 L 204.652344 231.554688 L 82.269531 269.898438 Z M 25.984375 90.257812 " clip-rule="nonzero"/></clipPath><clipPath id="c3875bdd47"><path d="M 25.984375 90.257812 L 148.367188 51.914062 L 204.652344 231.554688 L 82.269531 269.898438 Z M 25.984375 90.257812 " clip-rule="nonzero"/></clipPath><clipPath id="931d642fc2"><path d="M 147 112 L 153 112 L 153 140 L 147 140 Z M 147 112 " clip-rule="nonzero"/></clipPath><clipPath id="b9e439c744"><path d="M 25.984375 90.257812 L 148.367188 51.914062 L 204.652344 231.554688 L 82.269531 269.898438 Z M 25.984375 90.257812 " clip-rule="nonzero"/></clipPath><clipPath id="85ddc201cc"><path d="M 25.984375 90.257812 L 148.367188 51.914062 L 204.652344 231.554688 L 82.269531 269.898438 Z M 25.984375 90.257812 " clip-rule="nonzero"/></clipPath><clipPath id="8060e937eb"><path d="M 146 92 L 157 92 L 157 139 L 146 139 Z M 146 92 " clip-rule="nonzero"/></clipPath><clipPath id="0857fec01c"><path d="M 25.984375 90.257812 L 148.367188 51.914062 L 204.652344 231.554688 L 82.269531 269.898438 Z M 25.984375 90.257812 " clip-rule="nonzero"/></clipPath><clipPath id="84bb15ffd9"><path d="M 25.984375 90.257812 L 148.367188 51.914062 L 204.652344 231.554688 L 82.269531 269.898438 Z M 25.984375 90.257812 " clip-rule="nonzero"/></clipPath><clipPath id="097f958e98"><path d="M 151 114 L 154 114 L 154 137 L 151 137 Z M 151 114 " clip-rule="nonzero"/></clipPath><clipPath id="d95bada899"><path d="M 25.984375 90.257812 L 148.367188 51.914062 L 204.652344 231.554688 L 82.269531 269.898438 Z M 25.984375 90.257812 " clip-rule="nonzero"/></clipPath><clipPath id="586aec17ac"><path d="M 25.984375 90.257812 L 148.367188 51.914062 L 204.652344 231.554688 L 82.269531 269.898438 Z M 25.984375 90.257812 " clip-rule="nonzero"/></clipPath><clipPath id="4ead0c3eac"><path d="M 153 98 L 160 98 L 160 137 L 153 137 Z M 153 98 " clip-rule="nonzero"/></clipPath><clipPath id="7463881a26"><path d="M 25.984375 90.257812 L 148.367188 51.914062 L 204.652344 231.554688 L 82.269531 269.898438 Z M 25.984375 90.257812 " clip-rule="nonzero"/></clipPath><clipPath id="839b450135"><path d="M 25.984375 90.257812 L 148.367188 51.914062 L 204.652344 231.554688 L 82.269531 269.898438 Z M 25.984375 90.257812 " clip-rule="nonzero"/></clipPath><clipPath id="7c31f05b99"><path d="M 158 116 L 162 116 L 162 137 L 158 137 Z M 158 116 " clip-rule="nonzero"/></clipPath><clipPath id="058a03b965"><path d="M 25.984375 90.257812 L 148.367188 51.914062 L 204.652344 231.554688 L 82.269531 269.898438 Z M 25.984375 90.257812 " clip-rule="nonzero"/></clipPath><clipPath id="d4a34e3096"><path d="M 25.984375 90.257812 L 148.367188 51.914062 L 204.652344 231.554688 L 82.269531 269.898438 Z M 25.984375 90.257812 " clip-rule="nonzero"/></clipPath><clipPath id="07362311a8"><path d="M 142 83 L 147 83 L 147 109 L 142 109 Z M 142 83 " clip-rule="nonzero"/></clipPath><clipPath id="1a2619f236"><path d="M 25.984375 90.257812 L 148.367188 51.914062 L 204.652344 231.554688 L 82.269531 269.898438 Z M 25.984375 90.257812 " clip-rule="nonzero"/></clipPath><clipPath id="c60c6b68c5"><path d="M 25.984375 90.257812 L 148.367188 51.914062 L 204.652344 231.554688 L 82.269531 269.898438 Z M 25.984375 90.257812 " clip-rule="nonzero"/></clipPath></defs><rect x="-37.5" width="450" fill="#ffffff" y="-37.499999" height="449.999989" fill-opacity="1"/><rect x="-37.5" width="450" fill="#002855" y="-37.499999" height="449.999989" fill-opacity="1"/><g fill="#ffffff" fill-opacity="1"><g transform="translate(72.809411, 204.411695)"><g><path d="M 17.363281 0.609375 C 25.367188 0.609375 31.40625 -5.019531 31.40625 -14.3125 C 31.40625 -22.179688 25.570312 -28.21875 18.179688 -28.21875 C 16.210938 -28.21875 14.246094 -27.605469 13.226562 -26.65625 L 13.226562 -42.054688 L 3.390625 -42.054688 L 3.390625 0 C 4.273438 -0.339844 6.105469 -0.949219 8.480469 -0.746094 C 12.886719 -0.339844 13.160156 0.609375 17.363281 0.609375 Z M 16.414062 -0.136719 C 14.582031 -0.136719 13.226562 -1.695312 13.226562 -4.207031 L 13.226562 -25.503906 C 14.109375 -26.589844 15.328125 -27.269531 16.414062 -27.269531 C 20.011719 -27.269531 21.230469 -21.773438 21.230469 -14.3125 C 21.230469 -6.851562 19.738281 -0.136719 16.414062 -0.136719 Z M 16.414062 -0.136719 "/></g></g></g><g fill="#ffffff" fill-opacity="1"><g transform="translate(105.909499, 204.411695)"><g><path d="M 16.753906 0.679688 C 24.011719 0.679688 28.488281 -4.339844 29.914062 -10.921875 L 29.167969 -11.054688 C 27.742188 -6.78125 24.488281 -3.796875 20.6875 -3.796875 C 15.53125 -3.796875 11.800781 -8.613281 11.464844 -17.230469 L 29.097656 -17.230469 C 29.097656 -24.351562 24.011719 -28.421875 16.753906 -28.421875 C 8.480469 -28.421875 1.695312 -21.910156 1.695312 -13.90625 C 1.695312 -5.832031 8.480469 0.679688 16.753906 0.679688 Z M 11.464844 -17.90625 C 11.53125 -23.402344 13.703125 -27.675781 16.347656 -27.675781 C 18.992188 -27.675781 20.011719 -23.402344 20.011719 -17.90625 Z M 11.464844 -17.90625 "/></g></g></g><g fill="#ffffff" fill-opacity="1"><g transform="translate(137.517368, 204.411695)"><g><path d="M 21.09375 -28.285156 C 17.433594 -28.285156 14.992188 -26.65625 13.292969 -23.808594 L 13.292969 -27.675781 L 3.390625 -27.675781 L 3.390625 0 L 13.292969 0 L 13.292969 -22.453125 C 14.785156 -25.4375 16.957031 -27.269531 19.535156 -27.269531 C 21.503906 -27.269531 22.859375 -25.570312 22.859375 -23.46875 C 22.859375 -20.214844 19.398438 -18.449219 19.398438 -18.449219 C 19.535156 -16.753906 21.164062 -14.449219 23.875 -14.449219 C 27.878906 -14.449219 29.300781 -17.769531 29.300781 -20.621094 C 29.300781 -26.183594 25.164062 -28.285156 21.09375 -28.285156 Z M 21.09375 -28.285156 "/></g></g></g><g fill="#ffffff" fill-opacity="1"><g transform="translate(167.836508, 204.411695)"><g><path d="M 3.390625 0 L 13.292969 0 L 13.292969 -15.464844 C 13.90625 -15.804688 14.71875 -16.074219 15.53125 -16.074219 C 17.230469 -16.074219 18.585938 -15.464844 19.195312 -13.292969 C 21.027344 -6.917969 22.453125 -0.882812 29.371094 0 C 34.117188 0.609375 37.238281 0 37.238281 0 C 37.238281 0 34.527344 -2.507812 32.492188 -6.648438 C 29.777344 -12.210938 28.761719 -16.890625 23.605469 -18.382812 C 20.757812 -19.195312 17.023438 -18.246094 14.449219 -16.6875 L 26.589844 -27.675781 L 25.640625 -27.675781 L 13.292969 -16.617188 L 13.292969 -42.054688 L 3.390625 -42.054688 Z M 3.390625 0 "/></g></g></g><g fill="#ffffff" fill-opacity="1"><g transform="translate(206.09153, 204.411695)"><g><path d="M 16.753906 0.679688 C 24.011719 0.679688 28.488281 -4.339844 29.914062 -10.921875 L 29.167969 -11.054688 C 27.742188 -6.78125 24.488281 -3.796875 20.6875 -3.796875 C 15.53125 -3.796875 11.800781 -8.613281 11.464844 -17.230469 L 29.097656 -17.230469 C 29.097656 -24.351562 24.011719 -28.421875 16.753906 -28.421875 C 8.480469 -28.421875 1.695312 -21.910156 1.695312 -13.90625 C 1.695312 -5.832031 8.480469 0.679688 16.753906 0.679688 Z M 11.464844 -17.90625 C 11.53125 -23.402344 13.703125 -27.675781 16.347656 -27.675781 C 18.992188 -27.675781 20.011719 -23.402344 20.011719 -17.90625 Z M 11.464844 -17.90625 "/></g></g></g><g fill="#ffffff" fill-opacity="1"><g transform="translate(237.699399, 204.411695)"><g><path d="M 3.390625 0 L 13.292969 0 L 13.292969 -42.054688 L 3.390625 -42.054688 Z M 3.390625 0 "/></g></g></g><g fill="#ffffff" fill-opacity="1"><g transform="translate(254.385101, 204.411695)"><g><path d="M 16.753906 0.679688 C 24.011719 0.679688 28.488281 -4.339844 29.914062 -10.921875 L 29.167969 -11.054688 C 27.742188 -6.78125 24.488281 -3.796875 20.6875 -3.796875 C 15.53125 -3.796875 11.800781 -8.613281 11.464844 -17.230469 L 29.097656 -17.230469 C 29.097656 -24.351562 24.011719 -28.421875 16.753906 -28.421875 C 8.480469 -28.421875 1.695312 -21.910156 1.695312 -13.90625 C 1.695312 -5.832031 8.480469 0.679688 16.753906 0.679688 Z M 11.464844 -17.90625 C 11.53125 -23.402344 13.703125 -27.675781 16.347656 -27.675781 C 18.992188 -27.675781 20.011719 -23.402344 20.011719 -17.90625 Z M 11.464844 -17.90625 "/></g></g></g><g fill="#ffffff" fill-opacity="1"><g transform="translate(285.99296, 204.411695)"><g><path d="M 2.578125 12.820312 C 5.15625 12.820312 6.714844 12.34375 8.003906 11.261719 C 10.71875 9.226562 13.363281 4.070312 14.921875 0.746094 L 27.675781 -27.675781 L 26.929688 -27.675781 L 19.128906 -10.582031 L 10.921875 -27.675781 L 0.609375 -27.675781 L 14.515625 0 C 12.820312 3.796875 9.902344 9.019531 7.394531 10.851562 C 5.832031 12.007812 3.59375 11.125 3.59375 9.226562 C 3.59375 7.054688 6.375 6.511719 6.375 6.511719 C 6.375 6.511719 5.96875 0.882812 1.222656 0.882812 C -2.578125 0.882812 -4.613281 3.867188 -4.613281 6.171875 C -4.613281 9.699219 -1.628906 12.820312 2.578125 12.820312 Z M 2.578125 12.820312 "/></g></g></g><g fill="#ffffff" fill-opacity="1"><g transform="translate(144.985188, 253.161691)"><g><path d="M 3.390625 0 L 13.292969 0 L 13.292969 -21.367188 C 14.109375 -22.519531 16.007812 -24.488281 16.550781 -24.960938 C 19.058594 -27.132812 21.570312 -26.726562 21.570312 -22.996094 L 21.570312 0 L 31.472656 0 L 31.472656 -22.382812 C 32.355469 -23.46875 33.507812 -24.621094 33.914062 -24.960938 C 36.425781 -27.132812 38.933594 -26.726562 38.933594 -22.996094 L 38.933594 0 L 48.835938 0 L 48.835938 -22.789062 C 48.835938 -25.84375 45.71875 -28.761719 41.039062 -28.761719 C 36.96875 -28.761719 33.574219 -25.910156 31.40625 -23.402344 C 31 -26.25 28.015625 -28.761719 23.671875 -28.761719 C 19.128906 -28.761719 15.328125 -25.164062 13.292969 -22.519531 L 13.292969 -27.675781 L 3.390625 -27.675781 Z M 3.390625 0 "/></g></g></g><g fill="#ffffff" fill-opacity="1"><g transform="translate(197.212792, 253.161691)"><g><path d="M 9.835938 0.679688 C 13.5 0.679688 17.230469 -2.101562 18.789062 -4.679688 C 19.128906 -1.628906 21.636719 0.679688 24.824219 0.679688 C 28.351562 0.679688 31.203125 -2.171875 31.203125 -5.699219 L 30.660156 -5.765625 C 30.523438 -3.796875 30.183594 -3.460938 29.710938 -3.460938 C 28.828125 -3.460938 28.625 -4.542969 28.625 -5.765625 L 28.625 -17.023438 C 28.625 -20.417969 27.199219 -23.0625 24.894531 -24.960938 C 22.25 -27.132812 18.652344 -28.285156 14.3125 -28.285156 C 8.003906 -28.285156 2.917969 -25.027344 2.917969 -20.890625 C 2.917969 -18.382812 4.476562 -15.804688 8.003906 -16.144531 C 10.175781 -16.347656 11.800781 -18.246094 11.800781 -19.535156 C 11.800781 -19.535156 9.632812 -20.078125 9.632812 -23.265625 C 9.632812 -26.453125 11.800781 -27.539062 14.246094 -27.539062 C 16.753906 -27.539062 18.722656 -25.84375 18.722656 -22.65625 L 18.722656 -17.769531 C 9.292969 -13.292969 1.695312 -12.820312 1.695312 -5.832031 C 1.695312 -2.171875 5.15625 0.679688 9.835938 0.679688 Z M 14.378906 -3.1875 C 12.480469 -3.1875 11.125 -5.15625 11.125 -7.257812 C 11.125 -12.074219 14.039062 -14.449219 18.722656 -17.160156 L 18.722656 -5.359375 C 17.566406 -3.933594 16.210938 -3.1875 14.378906 -3.1875 Z M 14.378906 -3.1875 "/></g></g></g><g fill="#ffffff" fill-opacity="1"><g transform="translate(230.109404, 253.161691)"><g><path d="M 15.398438 -26.996094 L 15.398438 -27.675781 L 12.820312 -27.675781 L 12.820312 -37.304688 L 12.140625 -37.304688 C 12.140625 -31.675781 8.886719 -27.808594 3.460938 -27.675781 L 0 -27.675781 L 0 -26.996094 L 2.917969 -26.996094 L 2.917969 -5.425781 C 2.917969 -2.035156 5.5625 0.679688 9.019531 0.679688 C 12.546875 0.679688 15.398438 -2.171875 15.398438 -5.699219 L 14.855469 -5.765625 C 14.71875 -3.796875 14.378906 -3.460938 13.90625 -3.460938 C 13.023438 -3.460938 12.820312 -4.542969 12.820312 -5.765625 L 12.820312 -26.996094 Z M 15.398438 -26.996094 "/></g></g></g><g fill="#ffffff" fill-opacity="1"><g transform="translate(247.202069, 253.161691)"><g><path d="M 16.753906 0.679688 C 24.011719 0.679688 28.488281 -4.339844 29.914062 -10.921875 L 29.167969 -11.054688 C 27.742188 -6.78125 24.488281 -3.796875 20.6875 -3.796875 C 15.328125 -3.796875 11.464844 -8.613281 11.464844 -17.90625 C 11.464844 -23.605469 13.023438 -27.675781 16.820312 -27.675781 C 19.46875 -27.675781 21.09375 -26.046875 21.09375 -23.402344 C 21.09375 -20.214844 18.925781 -19.671875 18.925781 -19.671875 C 18.925781 -18.246094 20.890625 -16.277344 23.332031 -16.277344 C 26.453125 -16.277344 27.808594 -18.652344 27.808594 -21.027344 C 27.808594 -25.164062 22.722656 -28.421875 16.347656 -28.421875 C 8.273438 -28.21875 1.695312 -21.773438 1.695312 -13.90625 C 1.695312 -5.832031 8.480469 0.679688 16.753906 0.679688 Z M 16.753906 0.679688 "/></g></g></g><g fill="#ffffff" fill-opacity="1"><g transform="translate(278.809939, 253.161691)"><g><path d="M 3.390625 0 L 13.292969 0 L 13.292969 -21.367188 C 14.109375 -22.519531 16.007812 -24.488281 16.550781 -24.960938 C 19.058594 -27.132812 21.570312 -26.726562 21.570312 -22.996094 L 21.570312 0 L 31.472656 0 L 31.472656 -22.789062 C 31.472656 -25.84375 28.351562 -28.761719 23.671875 -28.761719 C 19.128906 -28.761719 15.328125 -25.164062 13.292969 -22.519531 L 13.292969 -42.054688 L 3.390625 -42.054688 Z M 3.390625 0 "/></g></g></g><g clip-path="url(#0cd76bf8b8)"><g clip-path="url(#fb24a969e3)"><g clip-path="url(#c88713bc60)"><path fill="#ffffff" d="M 85.851562 263.953125 C 85.585938 264.097656 85.351562 264.292969 85.109375 264.472656 C 84.886719 264.640625 84.597656 265.027344 84.324219 265.097656 C 83.953125 265.195312 83.644531 265.234375 83.417969 265.574219 C 83.355469 265.667969 83.476562 265.824219 83.5625 265.714844 C 83.753906 265.464844 84 265.433594 84.273438 265.394531 C 84.347656 265.386719 84.5 265.386719 84.5625 265.335938 C 85.03125 264.953125 85.585938 264.589844 85.949219 264.097656 C 86 264.03125 85.945312 263.898438 85.851562 263.953125 " fill-opacity="1" fill-rule="nonzero"/></g></g></g><g clip-path="url(#7e6a2b10c7)"><g clip-path="url(#1ecc3d9a2e)"><g clip-path="url(#8be3648b71)"><path fill="#ffffff" d="M 163.117188 126.335938 C 161.566406 124.449219 159.539062 123.324219 157.191406 124.40625 C 156.679688 124.644531 156.238281 125.078125 155.828125 125.554688 C 155.777344 125.570312 155.730469 125.589844 155.679688 125.621094 C 154.644531 126.316406 153.347656 126.613281 152.480469 127.558594 C 151.574219 128.535156 150.964844 129.820312 150.234375 130.9375 C 148.792969 133.148438 146.820312 134.621094 147.175781 137.367188 C 146.820312 139.355469 146.5625 141.355469 145.972656 143.285156 C 135.902344 159.820312 126.589844 176.824219 117.035156 193.660156 C 111.851562 202.796875 106.671875 211.9375 101.488281 221.070312 C 98.964844 225.523438 96.449219 229.976562 93.933594 234.433594 C 92.523438 236.925781 91.0625 239.417969 89.683594 241.949219 C 88.128906 244.460938 86.742188 247.09375 85.292969 249.652344 C 83.398438 252.996094 81.273438 256.304688 79.867188 259.878906 C 79.84375 259.941406 79.921875 260.035156 79.976562 259.96875 C 80.113281 259.789062 80.246094 259.605469 80.382812 259.417969 C 80.234375 259.707031 80.09375 259.996094 79.945312 260.289062 C 79.921875 260.292969 79.894531 260.3125 79.875 260.34375 C 79.566406 260.886719 79.726562 261.273438 79.898438 261.855469 C 80.257812 263.054688 80.527344 264.222656 81 265.390625 C 81.222656 265.9375 81.890625 266.292969 82.367188 266.542969 C 83.546875 267.164062 84.917969 267.511719 86.128906 268.082031 C 86.210938 268.125 86.335938 268.082031 86.355469 267.984375 C 86.355469 267.972656 86.351562 267.960938 86.355469 267.949219 C 86.875 268.121094 87.425781 268.117188 87.707031 267.710938 C 87.820312 267.675781 87.941406 267.597656 88.078125 267.457031 C 88.554688 266.957031 88.777344 266.441406 88.96875 265.769531 C 89.0625 265.429688 89.171875 265.101562 89.289062 264.773438 C 90.488281 262.792969 91.6875 260.8125 92.839844 258.800781 C 93.671875 257.351562 94.503906 255.890625 95.332031 254.4375 C 95.511719 254.128906 95.699219 253.816406 95.894531 253.503906 C 98.175781 250.042969 100.191406 246.40625 102.242188 242.8125 C 104.910156 238.132812 107.582031 233.457031 110.238281 228.773438 C 115.433594 219.621094 120.628906 210.472656 125.824219 201.320312 C 134.601562 185.855469 143.6875 170.515625 152.070312 154.824219 C 152.234375 154.820312 152.386719 154.730469 152.441406 154.519531 C 152.507812 154.253906 152.582031 153.984375 152.65625 153.71875 C 153.410156 152.304688 154.160156 150.886719 154.898438 149.464844 C 155 149.523438 155.128906 149.53125 155.277344 149.445312 C 155.628906 149.234375 155.972656 149.003906 156.300781 148.757812 C 156.296875 148.753906 156.292969 148.753906 156.292969 148.746094 C 156.792969 148.359375 157.210938 147.769531 157.53125 147.210938 C 158.417969 145.671875 158.925781 143.875 159.457031 142.140625 C 159.746094 141.796875 160.054688 141.464844 160.246094 141.121094 C 160.769531 140.195312 161.214844 139.171875 161.691406 138.210938 C 161.972656 137.644531 162.214844 137.039062 162.398438 136.417969 C 162.453125 136.355469 162.507812 136.292969 162.5625 136.230469 C 163.53125 135.164062 164.59375 134.171875 165.257812 132.878906 C 166.625 130.226562 164.671875 128.226562 163.117188 126.335938 Z M 80.285156 261.171875 C 80.789062 261.625 81.332031 261.992188 81.914062 262.265625 C 81.554688 262.472656 81.210938 262.789062 80.863281 262.9375 C 80.636719 262.359375 80.429688 261.757812 80.285156 261.171875 Z M 81.382812 264.203125 C 81.273438 263.945312 81.164062 263.683594 81.054688 263.410156 C 81.660156 263.238281 82.136719 262.796875 82.730469 262.582031 C 82.992188 262.660156 83.261719 262.714844 83.539062 262.753906 C 83.410156 262.8125 83.285156 262.875 83.152344 262.933594 C 82.484375 263.25 82.125 263.964844 81.417969 264.28125 C 81.40625 264.253906 81.394531 264.230469 81.382812 264.203125 Z M 86.613281 267.363281 C 86.582031 267.359375 86.550781 267.355469 86.519531 267.351562 C 86.417969 267.339844 86.320312 267.320312 86.21875 267.292969 C 85.996094 266.953125 85.546875 266.722656 85.066406 266.554688 C 85.414062 266.375 85.734375 266.148438 85.953125 265.835938 C 85.988281 265.785156 85.964844 265.632812 85.875 265.679688 C 85.417969 265.910156 85.003906 266.1875 84.546875 266.390625 C 84.167969 266.289062 83.808594 266.210938 83.558594 266.128906 C 83.015625 265.960938 82.601562 265.757812 82.257812 265.46875 C 82.761719 265.207031 83.199219 264.882812 83.617188 264.503906 C 83.894531 264.253906 84.09375 264.035156 84.417969 263.832031 C 84.671875 263.671875 84.796875 263.523438 84.929688 263.25 C 84.960938 263.1875 84.898438 263.074219 84.828125 263.144531 C 84.613281 263.371094 84.371094 263.511719 84.101562 263.667969 C 83.835938 263.820312 83.644531 264.039062 83.425781 264.253906 C 83.027344 264.65625 82.589844 264.992188 82.09375 265.265625 C 82.082031 265.273438 82.070312 265.277344 82.0625 265.289062 C 81.878906 265.097656 81.71875 264.878906 81.574219 264.609375 C 82.253906 264.386719 82.777344 263.867188 83.292969 263.390625 C 83.621094 263.085938 83.988281 263.078125 84.226562 262.8125 C 84.355469 262.816406 84.492188 262.820312 84.625 262.8125 C 84.734375 262.808594 84.824219 262.761719 84.902344 262.691406 C 84.925781 262.703125 84.964844 262.710938 85.023438 262.710938 C 85.105469 262.714844 85.195312 262.644531 85.222656 262.574219 C 85.351562 262.308594 85.289062 261.953125 84.996094 261.820312 C 84.890625 261.773438 84.753906 261.757812 84.644531 261.785156 C 84.050781 261.945312 83.289062 261.707031 82.695312 261.566406 C 81.789062 261.351562 81.023438 260.894531 80.164062 260.570312 C 80.15625 260.523438 80.144531 260.480469 80.136719 260.433594 C 80.140625 260.429688 80.144531 260.425781 80.148438 260.417969 C 81.898438 257.679688 83.535156 254.878906 85.160156 252.0625 C 85.949219 250.695312 86.757812 249.332031 87.53125 247.953125 C 90.050781 244.25 92.238281 240.304688 94.453125 236.414062 C 97.121094 231.734375 99.789062 227.058594 102.449219 222.375 C 107.644531 213.222656 112.839844 204.074219 118.035156 194.921875 C 126.785156 179.503906 135.84375 164.203125 144.207031 148.558594 C 143.800781 149.683594 143.519531 150.808594 143.742188 152.132812 C 143.78125 152.335938 143.914062 152.496094 144.074219 152.589844 C 143.863281 153.089844 143.640625 153.589844 143.40625 154.105469 C 142.859375 155.335938 142.414062 156.601562 141.90625 157.851562 C 141.601562 158.597656 141.039062 159.328125 140.867188 160.113281 C 140.65625 160.597656 140.457031 161.085938 140.273438 161.585938 C 140.210938 161.753906 140.261719 161.964844 140.363281 162.117188 C 138.761719 164.914062 137.210938 167.734375 135.769531 170.609375 C 135.703125 170.742188 135.882812 170.964844 135.984375 170.804688 C 140.015625 164.429688 143.53125 157.71875 147.160156 151.109375 C 147.867188 150.128906 148.480469 149.070312 149.4375 148.320312 C 149.796875 148.035156 150.164062 147.734375 150.527344 147.4375 C 150.53125 147.449219 150.535156 147.457031 150.542969 147.464844 C 150.117188 147.785156 149.839844 148.234375 149.84375 148.882812 C 149.847656 149.007812 149.878906 149.121094 149.925781 149.21875 C 140.617188 164.714844 131.898438 180.570312 122.980469 196.289062 C 117.796875 205.429688 112.617188 214.5625 107.433594 223.699219 C 104.90625 228.152344 102.390625 232.609375 99.875 237.0625 C 97.539062 241.195312 95.054688 245.328125 93.035156 249.640625 C 92.417969 250.753906 91.804688 251.871094 91.183594 252.972656 C 89.675781 255.644531 88.25 258.351562 86.863281 261.085938 C 86.664062 261.476562 86.464844 261.863281 86.269531 262.257812 C 86.214844 262.230469 86.152344 262.210938 86.089844 262.195312 C 85.863281 262.136719 85.789062 262.429688 85.953125 262.554688 C 86.171875 262.71875 86.335938 265.480469 86.867188 266.902344 C 86.785156 267.058594 86.699219 267.210938 86.613281 267.363281 Z M 87.628906 266.449219 C 87.746094 266.261719 87.855469 266.074219 87.96875 265.886719 C 87.847656 266.226562 87.730469 266.492188 87.628906 266.449219 Z M 92.296875 257.015625 C 91.015625 257.722656 89.773438 258.515625 88.519531 259.269531 C 88.503906 259.277344 88.496094 259.289062 88.492188 259.308594 C 88.464844 259.367188 88.511719 259.464844 88.585938 259.421875 C 89.761719 258.734375 90.960938 258.078125 92.117188 257.355469 C 92.082031 257.414062 92.054688 257.46875 92.019531 257.53125 C 91.53125 258.328125 91.105469 259.175781 90.65625 259.960938 C 90.367188 260.476562 90.089844 260.992188 89.820312 261.515625 C 89.664062 261.796875 89.507812 262.085938 89.351562 262.371094 C 89.066406 262.472656 88.796875 262.605469 88.523438 262.714844 C 88.117188 262.882812 87.609375 262.847656 87.183594 262.980469 C 87.144531 262.992188 87.136719 263.058594 87.164062 263.089844 C 87.167969 263.101562 87.183594 263.105469 87.203125 263.101562 C 87.359375 263.066406 87.515625 263.03125 87.675781 263.007812 C 87.929688 262.964844 88.1875 263.019531 88.433594 262.949219 C 88.683594 262.886719 88.929688 262.792969 89.175781 262.691406 C 88.59375 263.746094 88.007812 264.804688 87.433594 265.859375 C 87.355469 265.472656 87.320312 265.066406 87.265625 264.683594 C 87.199219 264.214844 87.167969 263.632812 87.003906 263.140625 C 86.894531 262.828125 86.734375 262.550781 86.476562 262.371094 C 86.707031 262.007812 86.9375 261.640625 87.167969 261.277344 C 87.585938 260.609375 88.011719 259.9375 88.425781 259.265625 C 89.394531 257.699219 90.34375 256.117188 91.265625 254.523438 C 91.289062 254.558594 91.328125 254.574219 91.367188 254.535156 C 91.449219 254.445312 91.546875 254.363281 91.652344 254.289062 C 92.117188 253.964844 92.785156 253.773438 93.253906 253.550781 C 93.683594 253.347656 94.121094 253.167969 94.5625 252.988281 C 93.757812 254.296875 93.023438 255.664062 92.296875 257.015625 Z M 97.390625 248.5 C 96.109375 249.050781 95.054688 250.066406 93.730469 250.5625 C 93.714844 250.566406 93.699219 250.582031 93.6875 250.601562 C 93.660156 250.65625 93.683594 250.738281 93.753906 250.71875 C 94.972656 250.410156 96.054688 249.640625 97.144531 248.957031 C 96.867188 249.464844 96.597656 249.976562 96.332031 250.488281 C 96.296875 250.484375 96.269531 250.5 96.238281 250.535156 C 95.726562 251.191406 95.257812 251.886719 94.8125 252.59375 C 94.222656 252.753906 93.667969 252.996094 93.113281 253.257812 C 92.625 253.484375 91.953125 253.730469 91.519531 254.132812 C 91.503906 254.144531 91.492188 254.152344 91.476562 254.167969 C 91.535156 254.066406 91.597656 253.964844 91.65625 253.859375 C 92.289062 252.753906 92.941406 251.652344 93.585938 250.542969 C 93.765625 250.238281 93.9375 249.9375 94.113281 249.632812 C 94.664062 248.796875 95.195312 247.949219 95.722656 247.101562 C 95.726562 247.121094 95.742188 247.144531 95.773438 247.132812 C 96.894531 246.722656 97.953125 246.152344 99.003906 245.59375 C 98.460938 246.554688 97.921875 247.523438 97.390625 248.5 Z M 101.890625 240.535156 C 100.847656 240.910156 99.839844 241.539062 98.96875 242.121094 C 98.960938 242.128906 98.949219 242.136719 98.945312 242.144531 C 98.886719 242.226562 98.949219 242.398438 99.050781 242.335938 C 99.675781 241.925781 100.320312 241.5625 100.996094 241.238281 C 101.207031 241.136719 101.421875 241.046875 101.644531 240.964844 C 100.84375 242.378906 100.027344 243.792969 99.21875 245.21875 C 98.042969 245.75 96.960938 246.503906 95.773438 247.015625 C 96.78125 245.367188 97.753906 243.691406 98.707031 242.007812 C 99.277344 241.019531 99.835938 240.03125 100.398438 239.042969 C 100.480469 238.902344 100.5625 238.761719 100.640625 238.621094 C 100.726562 238.535156 100.816406 238.460938 100.917969 238.394531 C 101.605469 237.917969 102.578125 237.839844 103.289062 237.425781 C 103.464844 237.328125 103.632812 237.234375 103.804688 237.144531 C 103.167969 238.273438 102.53125 239.402344 101.890625 240.535156 Z M 104.203125 236.441406 C 103.710938 236.710938 103.238281 237.035156 102.828125 237.285156 C 102.203125 237.667969 101.433594 237.742188 100.886719 238.1875 L 102.613281 235.160156 C 103.03125 234.988281 103.417969 234.746094 103.847656 234.582031 C 104.484375 234.332031 105.140625 234.058594 105.742188 233.71875 C 105.230469 234.628906 104.714844 235.535156 104.203125 236.441406 Z M 109.277344 227.46875 C 109.042969 227.886719 108.808594 228.296875 108.574219 228.710938 C 108.167969 228.933594 107.773438 229.183594 107.378906 229.425781 C 107.015625 229.652344 106.65625 229.804688 106.332031 230.078125 C 105.929688 230.414062 105.40625 230.621094 105.066406 231.023438 C 105.035156 231.0625 105.066406 231.148438 105.121094 231.105469 C 105.46875 230.839844 105.933594 230.824219 106.285156 230.542969 C 106.714844 230.203125 107.125 229.992188 107.605469 229.734375 C 107.796875 229.632812 107.988281 229.527344 108.175781 229.417969 C 107.414062 230.757812 106.660156 232.101562 105.898438 233.449219 C 105.824219 233.472656 105.75 233.5 105.675781 233.527344 C 105.074219 233.746094 104.472656 233.960938 103.894531 234.234375 C 103.535156 234.40625 103.179688 234.617188 102.816406 234.796875 C 103.542969 233.523438 104.265625 232.25 104.992188 230.980469 C 105.488281 230.109375 105.984375 229.238281 106.480469 228.367188 C 106.675781 228.242188 106.867188 228.121094 107.066406 228.003906 C 107.261719 227.890625 107.457031 227.789062 107.664062 227.710938 C 108.257812 227.492188 108.816406 227.203125 109.386719 226.921875 C 109.488281 226.875 109.582031 226.820312 109.675781 226.765625 C 109.542969 227 109.410156 227.234375 109.277344 227.46875 Z M 117.125 213.636719 C 116.613281 214.535156 116.105469 215.4375 115.59375 216.335938 C 114.457031 216.882812 113.386719 217.605469 112.300781 218.214844 C 112.277344 218.222656 112.265625 218.242188 112.257812 218.261719 C 112.230469 218.339844 112.277344 218.453125 112.363281 218.410156 C 113.3125 217.976562 114.285156 217.519531 115.210938 217.007812 L 113.300781 220.378906 L 110.167969 225.902344 C 109.292969 226.375 108.476562 227.054688 107.527344 227.367188 C 107.296875 227.441406 107.070312 227.570312 106.847656 227.71875 C 107.359375 226.8125 107.875 225.910156 108.390625 225.003906 L 110.519531 221.257812 C 111.386719 221.007812 112.191406 220.574219 113.027344 220.25 C 113.035156 220.246094 113.039062 220.242188 113.046875 220.238281 C 113.082031 220.195312 113.0625 220.097656 113 220.113281 C 112.160156 220.28125 111.433594 220.773438 110.628906 221.066406 C 111.164062 220.125 111.699219 219.183594 112.230469 218.246094 C 112.828125 217.195312 113.421875 216.148438 114.019531 215.097656 C 114.273438 214.984375 114.523438 214.824219 114.722656 214.703125 C 115.472656 214.246094 116.328125 214.257812 116.890625 213.5 C 116.933594 213.4375 116.890625 213.292969 116.800781 213.355469 C 116.296875 213.691406 115.757812 213.902344 115.195312 214.109375 C 114.925781 214.207031 114.597656 214.457031 114.261719 214.667969 C 115.238281 212.945312 116.21875 211.222656 117.195312 209.496094 C 117.34375 209.433594 117.492188 209.371094 117.632812 209.300781 C 118.066406 209.089844 118.476562 208.839844 118.886719 208.570312 C 119.386719 208.246094 119.933594 207.996094 120.472656 207.734375 C 119.359375 209.703125 118.238281 211.667969 117.125 213.636719 Z M 120.816406 207.128906 C 120.25 207.371094 119.695312 207.632812 119.164062 207.933594 C 118.589844 208.257812 118.070312 208.632812 117.503906 208.949219 C 118.242188 207.65625 118.976562 206.359375 119.710938 205.066406 C 119.84375 205.03125 119.972656 204.984375 120.101562 204.941406 C 121.007812 204.628906 121.875 204.175781 122.738281 203.738281 C 122.097656 204.871094 121.457031 205.996094 120.816406 207.128906 Z M 124.824219 200.058594 C 124.230469 201.105469 123.632812 202.160156 123.039062 203.210938 C 121.972656 203.535156 121.015625 204.160156 119.984375 204.582031 C 120.675781 203.367188 121.367188 202.148438 122.058594 200.933594 C 122.078125 200.933594 122.101562 200.929688 122.121094 200.921875 C 122.609375 200.707031 123.09375 200.476562 123.582031 200.253906 C 124.0625 200.039062 124.578125 199.871094 125.058594 199.648438 C 124.980469 199.785156 124.902344 199.921875 124.824219 200.058594 Z M 125.265625 199.277344 C 125.175781 199.289062 125.089844 199.296875 125 199.316406 C 124.078125 199.472656 123.183594 200.011719 122.339844 200.4375 C 122.882812 199.476562 123.433594 198.511719 123.976562 197.550781 C 124.058594 197.410156 124.140625 197.265625 124.222656 197.121094 C 124.234375 197.226562 124.34375 197.332031 124.445312 197.25 C 125.074219 196.75 125.832031 196.589844 126.484375 196.167969 C 126.75 195.996094 127.015625 195.851562 127.285156 195.710938 C 126.609375 196.902344 125.941406 198.089844 125.265625 199.277344 Z M 127.664062 195.039062 C 127.324219 195.164062 127 195.359375 126.695312 195.554688 C 125.910156 196.054688 125.03125 196.359375 124.3125 196.964844 C 125 195.757812 125.6875 194.550781 126.378906 193.34375 C 126.429688 193.351562 126.484375 193.347656 126.539062 193.347656 C 126.964844 193.324219 127.40625 193.078125 127.75 192.878906 C 128.117188 192.664062 128.453125 192.410156 128.832031 192.214844 C 129.042969 192.109375 129.253906 191.980469 129.464844 191.851562 C 128.863281 192.914062 128.265625 193.976562 127.664062 195.039062 Z M 129.898438 191.078125 C 129.378906 191.304688 128.890625 191.683594 128.414062 191.945312 C 127.90625 192.230469 127.199219 192.984375 126.527344 193.085938 C 127.125 192.035156 127.71875 190.984375 128.320312 189.941406 C 128.597656 189.796875 128.863281 189.640625 129.136719 189.476562 C 129.402344 189.316406 129.671875 189.15625 129.945312 189.003906 C 130.488281 188.714844 131.039062 188.445312 131.566406 188.136719 C 131.007812 189.117188 130.453125 190.097656 129.898438 191.078125 Z M 132.019531 187.332031 C 131.242188 187.78125 130.453125 188.207031 129.667969 188.640625 C 129.410156 188.789062 129.15625 188.945312 128.90625 189.101562 C 128.851562 189.128906 128.800781 189.164062 128.746094 189.195312 C 129.273438 188.273438 129.800781 187.347656 130.332031 186.429688 C 130.4375 186.371094 130.550781 186.320312 130.664062 186.273438 C 131.011719 186.144531 131.382812 186.0625 131.746094 185.949219 C 132.242188 185.796875 132.777344 185.449219 133.257812 185.132812 C 132.84375 185.867188 132.433594 186.597656 132.019531 187.332031 Z M 133.527344 184.65625 C 132.726562 184.761719 132.171875 185.378906 131.4375 185.648438 C 131.148438 185.753906 130.863281 185.84375 130.59375 185.964844 C 131.292969 184.746094 131.988281 183.53125 132.6875 182.3125 C 132.6875 182.378906 132.730469 182.445312 132.796875 182.398438 C 133.367188 181.992188 134.074219 181.902344 134.636719 181.472656 C 134.996094 181.203125 135.375 180.953125 135.757812 180.707031 C 135.011719 182.023438 134.269531 183.339844 133.527344 184.65625 Z M 136.027344 180.230469 C 135.675781 180.414062 135.339844 180.621094 135.007812 180.847656 C 134.585938 181.132812 134.175781 181.445312 133.714844 181.65625 C 133.363281 181.816406 133.039062 181.972656 132.742188 182.21875 C 133.460938 180.957031 134.183594 179.699219 134.90625 178.4375 C 135.046875 178.335938 135.1875 178.253906 135.335938 178.175781 C 135.976562 177.855469 136.707031 177.714844 137.28125 177.273438 C 137.609375 177.015625 137.882812 176.632812 138.214844 176.359375 C 137.484375 177.648438 136.757812 178.9375 136.027344 180.230469 Z M 138.566406 175.738281 C 138.09375 176.035156 137.738281 176.363281 137.269531 176.863281 C 136.738281 177.425781 135.914062 177.601562 135.226562 177.96875 L 135.226562 177.972656 C 135.199219 177.984375 135.175781 177.996094 135.148438 178.011719 C 135.996094 176.535156 136.84375 175.054688 137.6875 173.574219 C 137.804688 173.503906 137.925781 173.445312 138.050781 173.386719 C 138.417969 173.207031 138.804688 173.054688 139.144531 172.878906 C 139.691406 172.589844 140.210938 172.246094 140.738281 171.917969 C 140.015625 173.191406 139.292969 174.464844 138.566406 175.738281 Z M 141.0625 171.351562 C 140.265625 171.574219 139.617188 172.125 138.925781 172.570312 C 138.613281 172.773438 138.277344 172.929688 137.957031 173.101562 C 138.601562 171.96875 139.246094 170.832031 139.890625 169.699219 C 139.9375 169.746094 140 169.769531 140.070312 169.742188 C 140.128906 169.71875 140.1875 169.699219 140.25 169.671875 C 141.023438 169.371094 141.820312 169.074219 142.574219 168.703125 C 142.070312 169.582031 141.566406 170.472656 141.0625 171.351562 Z M 142.925781 168.089844 C 141.988281 168.503906 141.058594 168.921875 140.109375 169.3125 C 140.585938 168.480469 141.058594 167.644531 141.53125 166.808594 C 141.621094 166.769531 141.714844 166.730469 141.789062 166.671875 C 142.027344 166.496094 142.28125 166.382812 142.554688 166.257812 C 143.160156 165.972656 143.863281 165.789062 144.449219 165.445312 C 143.9375 166.328125 143.433594 167.210938 142.925781 168.089844 Z M 144.722656 164.976562 C 144.59375 165.007812 144.460938 165.042969 144.335938 165.085938 C 143.664062 165.292969 143.007812 165.605469 142.378906 165.90625 C 142.183594 165.996094 142.035156 166.078125 141.894531 166.164062 C 142.328125 165.390625 142.765625 164.613281 143.199219 163.835938 C 143.234375 163.894531 143.296875 163.929688 143.363281 163.878906 C 143.414062 163.84375 143.464844 163.804688 143.519531 163.773438 C 144.3125 163.238281 145.230469 162.988281 146.054688 162.503906 C 146.105469 162.480469 146.152344 162.453125 146.203125 162.425781 C 145.707031 163.273438 145.214844 164.125 144.722656 164.976562 Z M 148.8125 157.964844 C 147.601562 158.238281 146.164062 159.058594 145.527344 160.042969 C 145.464844 160.144531 145.597656 160.304688 145.683594 160.183594 C 146.355469 159.269531 147.484375 158.882812 148.523438 158.453125 C 147.914062 159.488281 147.308594 160.527344 146.703125 161.570312 C 146.300781 161.78125 145.90625 162.019531 145.511719 162.253906 C 144.78125 162.691406 144.050781 162.941406 143.40625 163.472656 C 144.058594 162.296875 144.714844 161.128906 145.359375 159.953125 C 145.789062 159.175781 146.222656 158.398438 146.648438 157.621094 C 146.730469 157.554688 146.8125 157.484375 146.898438 157.425781 C 147.941406 156.621094 149.097656 155.960938 150.304688 155.441406 C 149.804688 156.28125 149.308594 157.125 148.8125 157.964844 Z M 152.191406 152.269531 C 151.59375 153.261719 151.007812 154.261719 150.414062 155.253906 C 149.117188 155.582031 147.859375 156.453125 146.8125 157.3125 C 147.347656 156.339844 147.882812 155.367188 148.414062 154.394531 C 148.625 154.304688 148.828125 154.214844 149.019531 154.058594 C 149.441406 153.691406 149.945312 153.515625 150.375 153.214844 C 150.808594 152.90625 151.226562 152.554688 151.722656 152.367188 C 151.820312 152.328125 151.917969 152.300781 152.023438 152.277344 C 152.101562 152.265625 152.160156 152.246094 152.210938 152.21875 Z M 152.386719 151.664062 C 152.390625 151.667969 152.390625 151.675781 152.390625 151.679688 C 152.355469 151.789062 152.320312 151.898438 152.28125 152.007812 C 152.113281 152.109375 151.898438 152.183594 151.679688 152.253906 C 151.410156 152.339844 151.144531 152.421875 150.953125 152.53125 C 150.535156 152.78125 150.144531 153.039062 149.710938 153.265625 C 149.296875 153.484375 148.984375 153.964844 148.550781 154.136719 C 149.109375 153.109375 149.671875 152.082031 150.222656 151.046875 C 150.394531 150.933594 150.570312 150.828125 150.742188 150.722656 C 150.867188 150.644531 150.976562 150.5625 151.085938 150.480469 C 151.464844 150.457031 151.90625 150.355469 152.355469 150.199219 C 152.335938 150.386719 152.328125 150.574219 152.335938 150.761719 C 152.339844 150.898438 152.414062 150.972656 152.511719 150.996094 C 152.445312 151.210938 152.390625 151.429688 152.386719 151.664062 Z M 151.269531 132.492188 C 151.074219 132.53125 150.898438 132.605469 150.738281 132.707031 C 150.960938 132.5 151.199219 132.3125 151.457031 132.15625 C 151.390625 132.273438 151.332031 132.386719 151.269531 132.492188 " fill-opacity="1" fill-rule="nonzero"/></g></g></g><g clip-path="url(#7f538efa38)"><g clip-path="url(#6e9b527297)"><g clip-path="url(#2837ad415c)"><path fill="#ffffff" d="M 160.339844 128.527344 C 159.652344 128.128906 158.882812 128.496094 158.269531 128.871094 C 157.089844 129.589844 156.277344 130.824219 155.59375 132.117188 C 155.539062 132.105469 155.480469 132.113281 155.441406 132.15625 C 154.902344 132.773438 154.113281 132.941406 154.503906 133.863281 C 154.535156 133.941406 154.578125 134.007812 154.628906 134.0625 C 154.542969 134.234375 154.457031 134.40625 154.375 134.570312 C 154.308594 134.695312 154.53125 134.824219 154.605469 134.691406 C 154.691406 134.539062 154.777344 134.386719 154.859375 134.230469 C 155.191406 134.382812 155.632812 134.316406 155.964844 134.21875 C 156.800781 133.96875 157.503906 133.144531 158.121094 132.585938 C 158.945312 131.839844 159.984375 130.980469 160.480469 129.960938 C 160.664062 129.578125 160.8125 128.800781 160.339844 128.527344 Z M 159.917969 129.808594 C 159.710938 130.328125 159.101562 130.816406 158.734375 131.199219 C 158.109375 131.855469 157.429688 132.457031 156.730469 133.035156 C 156.339844 133.359375 155.964844 133.691406 155.421875 133.710938 C 155.308594 133.71875 155.222656 133.707031 155.160156 133.691406 C 155.65625 132.796875 156.164062 131.90625 156.769531 131.078125 C 157.226562 130.457031 157.753906 129.910156 158.359375 129.4375 C 158.984375 128.953125 160.398438 128.601562 159.917969 129.808594 " fill-opacity="1" fill-rule="nonzero"/></g></g></g><g clip-path="url(#edbb8b41d0)"><g clip-path="url(#0ff8a6c2b5)"><g clip-path="url(#869a4d9aa8)"><path fill="#ffffff" d="M 167.855469 115.429688 C 167.277344 113.503906 166.6875 111.554688 166.304688 109.5 C 165.953125 107.625 165.578125 105.8125 164.707031 104.105469 C 164.589844 103.878906 164.132812 103.988281 164.195312 104.257812 C 164.246094 104.488281 164.296875 104.726562 164.347656 104.960938 C 163.847656 103.609375 163.226562 102.304688 162.429688 101.027344 C 160.417969 97.820312 158.652344 94.453125 156.804688 91.152344 C 153.496094 85.246094 148.960938 80.128906 144.1875 75.347656 C 141.765625 72.921875 139.664062 69.679688 137.921875 66.722656 C 137.007812 65.171875 136.175781 63.574219 135.261719 62.023438 C 135.214844 61.941406 135.164062 61.867188 135.113281 61.789062 C 134.753906 60.722656 134.453125 59.644531 134.253906 58.527344 C 134.234375 58.410156 133.996094 58.34375 134.003906 58.496094 C 134.03125 59.121094 134.113281 59.738281 134.226562 60.347656 C 134.109375 60.023438 133.988281 59.703125 133.890625 59.382812 C 133.804688 58.792969 133.796875 58.171875 133.75 57.582031 C 133.714844 57.085938 132.847656 56.78125 132.691406 57.359375 C 132.535156 57.949219 132.582031 58.511719 132.707031 59.074219 C 132.75 59.355469 132.808594 59.628906 132.878906 59.902344 C 132.917969 60.0625 132.960938 60.21875 133.019531 60.371094 C 133.097656 60.609375 133.1875 60.847656 133.28125 61.085938 C 133.664062 62.65625 133.734375 64.3125 134.117188 65.890625 C 134.597656 67.859375 135.21875 69.796875 135.730469 71.761719 C 136.21875 73.652344 136.445312 75.507812 137.066406 77.363281 C 139.597656 84.894531 140.683594 92.929688 141.375 100.8125 C 142.0625 108.691406 141.734375 116.605469 142.394531 124.480469 C 142.71875 128.371094 143.535156 132.1875 144.917969 135.839844 C 145.433594 137.199219 146.054688 138.496094 146.777344 139.75 C 146.78125 140.738281 146.722656 141.726562 146.449219 142.695312 C 146.113281 143.875 145.535156 144.964844 145.222656 146.15625 C 144.9375 147.261719 145.621094 147.613281 146.464844 146.953125 C 147.378906 146.238281 147.390625 145.367188 148.765625 145.257812 C 150.011719 145.15625 149.980469 147.882812 150.59375 148.539062 C 150.996094 148.964844 151.390625 149.175781 151.980469 149.105469 C 152.324219 149.066406 152.621094 148.792969 152.96875 148.773438 C 154.335938 148.6875 153.46875 151.679688 153.203125 152.078125 C 152.960938 152.441406 153.433594 152.757812 153.695312 152.425781 C 154.445312 151.476562 155.097656 150.453125 156.003906 149.640625 C 156.300781 149.371094 156.421875 148.84375 156.503906 148.476562 C 156.527344 148.351562 156.355469 148.222656 156.253906 148.3125 C 156.667969 147.835938 157.09375 147.367188 157.34375 146.800781 C 157.347656 146.789062 157.347656 146.777344 157.351562 146.769531 C 157.488281 146.675781 157.628906 146.582031 157.765625 146.488281 C 157.777344 146.480469 157.785156 146.472656 157.796875 146.464844 C 157.8125 146.46875 157.828125 146.46875 157.847656 146.464844 C 158.277344 146.375 158.425781 146.304688 158.675781 145.953125 C 159.179688 145.25 159.554688 144.832031 160.332031 144.367188 C 161.351562 143.753906 162.039062 142.839844 162.683594 141.882812 C 162.953125 141.5625 163.191406 141.203125 163.441406 140.851562 C 163.460938 140.824219 163.476562 140.796875 163.496094 140.769531 C 166.457031 136.453125 169.015625 131.726562 169.542969 126.4375 C 169.9375 122.464844 168.921875 118.980469 167.855469 115.429688 Z M 137.097656 70.863281 C 137.140625 70.84375 137.183594 70.824219 137.21875 70.796875 C 137.445312 71.488281 137.714844 72.1875 137.953125 72.890625 C 137.695312 72.363281 137.445312 71.835938 137.242188 71.273438 C 137.195312 71.136719 137.148438 71 137.097656 70.863281 Z M 154.375 150.527344 C 154.394531 150.398438 154.40625 150.269531 154.417969 150.140625 C 154.449219 150.09375 154.484375 150.046875 154.515625 150 C 154.542969 150.070312 154.585938 150.132812 154.644531 150.171875 C 154.554688 150.292969 154.464844 150.410156 154.375 150.527344 Z M 164.558594 139.132812 C 164.707031 138.894531 164.84375 138.65625 164.984375 138.414062 C 165.125 138.25 165.269531 138.078125 165.417969 137.902344 C 165.148438 138.324219 164.863281 138.738281 164.558594 139.132812 Z M 166.332031 131.289062 C 165.644531 133.898438 164.039062 136.433594 162.710938 138.761719 C 162.527344 139.078125 162.355469 139.386719 162.183594 139.683594 C 161.957031 139.917969 161.722656 140.148438 161.492188 140.378906 C 160.519531 141.3125 159.738281 142.453125 158.980469 143.597656 C 158.851562 143.691406 158.714844 143.78125 158.570312 143.867188 C 157.839844 144.320312 157.363281 145.148438 156.765625 145.742188 C 156.175781 146.328125 155.617188 147.640625 154.917969 148.0625 C 154.683594 148.203125 154.960938 148.46875 155.164062 148.367188 C 155.1875 148.355469 155.207031 148.34375 155.226562 148.332031 C 155.175781 148.402344 155.128906 148.476562 155.078125 148.539062 C 154.832031 148.847656 154.609375 149.164062 154.398438 149.496094 C 154.335938 149.007812 154.152344 148.582031 153.773438 148.324219 C 153 147.804688 151.21875 148.3125 150.851562 147.226562 C 150.53125 146.28125 150.46875 144.929688 149.359375 144.507812 C 148.597656 144.222656 147.816406 144.582031 147.160156 144.949219 C 146.617188 145.253906 145.578125 147.453125 146.222656 145.429688 C 146.613281 144.207031 147.164062 143.109375 147.347656 141.824219 C 147.390625 141.511719 147.417969 141.191406 147.433594 140.871094 C 148.0625 141.957031 148.746094 143.121094 149.890625 143.640625 C 150.25 143.804688 150.589844 143.148438 150.242188 142.945312 C 148.910156 142.167969 148.121094 140.140625 147.484375 138.820312 C 147.429688 138.707031 147.378906 138.59375 147.324219 138.480469 C 147.289062 138.171875 147.25 137.867188 147.203125 137.566406 C 147.175781 137.410156 146.992188 137.339844 146.859375 137.375 C 146.464844 136.359375 146.136719 135.320312 145.835938 134.269531 C 144.726562 130.386719 144.128906 126.453125 143.886719 122.425781 C 143.421875 114.804688 143.628906 107.195312 142.9375 99.578125 C 142.273438 92.289062 141.171875 84.988281 139.015625 77.980469 C 138.539062 76.425781 138.113281 74.855469 137.691406 73.285156 C 137.785156 73.484375 137.882812 73.679688 137.988281 73.878906 C 138.160156 74.199219 138.308594 74.53125 138.449219 74.867188 C 138.453125 74.875 138.453125 74.882812 138.457031 74.894531 C 138.703125 76.847656 139.464844 79.257812 140.851562 80.738281 C 140.964844 80.855469 141.199219 80.734375 141.082031 80.582031 C 140.582031 79.945312 140.164062 78.679688 139.933594 77.882812 C 139.59375 76.707031 139.546875 75.300781 139.136719 74.179688 C 138.742188 73.105469 138.445312 71.980469 138.15625 70.855469 C 138.515625 71.703125 138.894531 72.542969 139.320312 73.359375 C 140.058594 74.761719 141 76.675781 142.195312 77.816406 C 142.628906 78.835938 143.183594 79.800781 143.875 80.664062 C 145.398438 82.566406 147.539062 84.328125 149.617188 85.59375 C 149.824219 85.71875 150.203125 85.542969 150.09375 85.273438 C 149.757812 84.453125 149.050781 83.976562 148.351562 83.472656 C 147.222656 82.664062 146.164062 81.722656 145.164062 80.761719 C 143.703125 79.355469 142.585938 77.40625 141.808594 75.429688 C 141.898438 75.460938 141.992188 75.488281 142.09375 75.5 C 142.199219 75.511719 142.34375 75.425781 142.269531 75.304688 C 141.9375 74.785156 141.667969 74.242188 141.382812 73.703125 C 142.222656 74.894531 143.222656 75.886719 144.25 76.914062 C 145.550781 78.214844 146.640625 79.691406 147.921875 80.996094 C 150.761719 83.882812 153.445312 87.136719 155.421875 90.675781 C 157.207031 93.871094 158.945312 97.171875 160.910156 100.261719 C 162.484375 102.734375 163.699219 105.019531 164.464844 107.726562 C 164.53125 108.171875 164.621094 108.621094 164.722656 109.0625 C 164.433594 108.527344 164.136719 107.992188 163.824219 107.464844 C 162.363281 105.007812 160.820312 102.597656 159.367188 100.128906 C 158.0625 97.914062 156.359375 95.976562 155.234375 93.65625 C 155.179688 93.542969 154.898438 93.476562 154.9375 93.667969 C 155.355469 95.730469 156.714844 97.285156 157.738281 99.066406 C 158.960938 101.195312 159.988281 103.425781 161.21875 105.550781 C 161.234375 105.648438 161.28125 105.738281 161.367188 105.804688 C 161.390625 105.847656 161.414062 105.890625 161.441406 105.933594 C 162.332031 107.425781 163.160156 108.929688 163.933594 110.457031 C 164.1875 111.113281 164.433594 111.773438 164.667969 112.4375 C 165.085938 114.246094 165.296875 116.195312 165.453125 117.921875 C 165.546875 118.902344 165.46875 120.117188 165.753906 121.058594 C 166.164062 122.40625 166.46875 123.765625 166.691406 125.15625 C 166.746094 125.503906 166.800781 125.851562 166.855469 126.199219 C 166.203125 127.871094 166.785156 129.5625 166.332031 131.289062 Z M 168.761719 127.726562 C 168.730469 128.183594 168.679688 128.640625 168.621094 129.09375 C 168.65625 128.707031 168.667969 128.324219 168.660156 127.949219 C 168.652344 127.660156 168.671875 127.382812 168.707031 127.109375 C 168.726562 127.316406 168.742188 127.519531 168.761719 127.726562 " fill-opacity="1" fill-rule="nonzero"/></g></g></g><g clip-path="url(#a60b0138e3)"><g clip-path="url(#9d1e58f896)"><g clip-path="url(#3f7157c0d4)"><path fill="#ffffff" d="M 164.21875 118.925781 C 163.660156 117.0625 162.699219 114.078125 160.875 113.105469 C 160.691406 113.007812 160.324219 113.179688 160.472656 113.417969 C 161.769531 115.515625 162.617188 117.988281 163.3125 120.347656 C 164.152344 123.179688 164.441406 125.589844 163.835938 128.519531 C 163.300781 131.117188 162.632812 133.773438 161.765625 136.28125 C 161.515625 136.992188 161.222656 137.683594 160.90625 138.367188 C 160.671875 138.875 160.199219 140.84375 159.507812 141.207031 C 159.164062 141.382812 159.191406 141.6875 159.238281 141.988281 C 159.253906 142.101562 159.414062 142.160156 159.476562 142.050781 C 159.921875 141.265625 159.855469 141.753906 160.152344 141.480469 C 160.503906 141.160156 160.789062 140.609375 161.058594 140.210938 C 161.859375 139.042969 162.386719 137.566406 162.910156 136.25 C 164.046875 133.394531 164.945312 130.167969 165.382812 127.128906 C 165.804688 124.207031 165.042969 121.675781 164.21875 118.925781 " fill-opacity="1" fill-rule="nonzero"/></g></g></g><g clip-path="url(#a7c122debe)"><g clip-path="url(#85f641d2cf)"><g clip-path="url(#c3875bdd47)"><path fill="#ffffff" d="M 151.722656 139.460938 C 150.761719 139.414062 150.046875 136.710938 149.769531 136.027344 C 149.011719 134.160156 148.402344 132.199219 147.769531 130.285156 C 146.929688 127.75 146.207031 125.027344 145.964844 122.367188 C 145.71875 119.671875 146.441406 116.9375 146.144531 114.230469 C 146.117188 113.96875 145.691406 114.027344 145.617188 114.226562 C 143.546875 119.863281 144.820312 125.726562 146.734375 131.21875 C 147.492188 133.394531 148.390625 135.507812 149.386719 137.582031 C 149.773438 138.386719 150.59375 140.527344 151.824219 139.988281 C 152.113281 139.863281 152.023438 139.476562 151.722656 139.460938 " fill-opacity="1" fill-rule="nonzero"/></g></g></g><g clip-path="url(#931d642fc2)"><g clip-path="url(#b9e439c744)"><g clip-path="url(#85ddc201cc)"><path fill="#ffffff" d="M 150.757812 133.3125 C 150.367188 130.988281 150.140625 128.644531 149.699219 126.324219 C 149.269531 124.058594 148.996094 121.851562 148.792969 119.542969 C 148.574219 117.113281 149.378906 114.796875 149.472656 112.382812 C 149.476562 112.21875 149.1875 112.125 149.109375 112.273438 C 148.589844 113.210938 148.40625 114.292969 148.214844 115.34375 C 147.992188 116.566406 147.644531 117.761719 147.734375 119.003906 C 147.890625 121.148438 147.933594 123.453125 148.476562 125.542969 C 149.117188 127.992188 149.425781 130.507812 149.875 132.996094 C 150.261719 135.121094 151.210938 137.003906 151.789062 139.082031 C 151.828125 139.222656 152.132812 139.308594 152.132812 139.105469 C 152.144531 137.082031 151.082031 135.285156 150.757812 133.3125 " fill-opacity="1" fill-rule="nonzero"/></g></g></g><g clip-path="url(#8060e937eb)"><g clip-path="url(#0857fec01c)"><g clip-path="url(#84bb15ffd9)"><path fill="#ffffff" d="M 155.761719 113.925781 C 155.445312 111.933594 154.566406 110.023438 153.980469 108.101562 C 153.71875 107.230469 153.609375 106.457031 153.203125 105.625 C 152.742188 104.683594 152.203125 103.785156 151.757812 102.839844 C 150.921875 101.0625 150.320312 99.1875 149.617188 97.355469 C 148.945312 95.609375 147.832031 94.0625 147.230469 92.300781 C 147.097656 91.925781 146.53125 92.011719 146.496094 92.40625 C 146.328125 94.40625 147.523438 96.023438 148.222656 97.828125 C 148.9375 99.671875 149.5 101.554688 150.289062 103.371094 C 150.996094 105 151.886719 106.371094 152.359375 108.089844 C 152.933594 110.175781 153.828125 112.167969 154.277344 114.285156 C 154.695312 116.253906 154.59375 118.320312 154.753906 120.316406 C 154.925781 122.429688 155.328125 124.515625 155.492188 126.628906 C 155.640625 128.550781 155.488281 130.511719 155.464844 132.433594 C 155.445312 134.453125 155.03125 136.484375 155.175781 138.496094 C 155.203125 138.859375 155.785156 138.714844 155.773438 138.382812 C 155.714844 136.613281 156.183594 134.871094 156.359375 133.117188 C 156.578125 130.933594 156.941406 128.785156 156.871094 126.582031 C 156.8125 124.636719 156.484375 122.703125 156.28125 120.769531 C 156.039062 118.488281 156.125 116.195312 155.761719 113.925781 " fill-opacity="1" fill-rule="nonzero"/></g></g></g><g clip-path="url(#097f958e98)"><g clip-path="url(#d95bada899)"><g clip-path="url(#586aec17ac)"><path fill="#ffffff" d="M 151.710938 114.699219 C 151.640625 114.410156 151.175781 114.519531 151.15625 114.785156 C 150.898438 118.246094 151.09375 121.460938 151.40625 124.90625 C 151.597656 127.042969 151.769531 129.191406 152.0625 131.316406 C 152.308594 133.113281 152.210938 134.996094 152.542969 136.757812 C 152.578125 136.941406 152.90625 136.949219 152.917969 136.75 C 153.152344 132.933594 152.980469 129.269531 152.65625 125.453125 C 152.484375 123.441406 152.304688 121.433594 152.136719 119.421875 C 152.003906 117.839844 152.082031 116.253906 151.710938 114.699219 " fill-opacity="1" fill-rule="nonzero"/></g></g></g><g clip-path="url(#4ead0c3eac)"><g clip-path="url(#7463881a26)"><g clip-path="url(#839b450135)"><path fill="#ffffff" d="M 157.308594 107.628906 C 156.757812 106 156.359375 104.355469 155.722656 102.75 C 155.207031 101.449219 154.320312 100.207031 153.921875 98.886719 C 153.820312 98.550781 153.257812 98.714844 153.292969 99.042969 C 153.4375 100.335938 154.167969 101.417969 154.667969 102.609375 C 155.34375 104.222656 155.796875 105.878906 156.3125 107.542969 C 156.765625 109.023438 157.351562 110.4375 157.546875 111.984375 C 157.757812 113.660156 157.847656 115.359375 157.996094 117.039062 C 158.292969 120.375 158.425781 123.578125 158.226562 126.921875 C 158.128906 128.601562 158.042969 130.269531 157.769531 131.933594 C 157.546875 133.261719 157 134.648438 157.105469 136 C 157.113281 136.09375 157.292969 136.183594 157.308594 136.054688 C 157.484375 134.707031 158.046875 133.339844 158.34375 131.992188 C 158.710938 130.316406 158.824219 128.621094 158.976562 126.914062 C 159.292969 123.347656 159.164062 119.964844 158.851562 116.402344 C 158.582031 113.335938 158.300781 110.554688 157.308594 107.628906 " fill-opacity="1" fill-rule="nonzero"/></g></g></g><g clip-path="url(#7c31f05b99)"><g clip-path="url(#058a03b965)"><g clip-path="url(#d4a34e3096)"><path fill="#ffffff" d="M 160.273438 116.835938 C 160.175781 116.679688 159.8125 116.703125 159.828125 116.929688 C 159.945312 118.449219 160.53125 119.867188 160.648438 121.402344 C 160.789062 123.246094 160.648438 125.101562 160.375 126.925781 C 160.132812 128.546875 160.175781 130.144531 159.8125 131.773438 C 159.515625 133.097656 159.714844 134.558594 158.964844 135.75 C 158.839844 135.945312 159.1875 136.109375 159.316406 135.9375 C 160.148438 134.796875 159.921875 133.621094 160.324219 132.367188 C 160.773438 130.945312 161.089844 129.507812 161.121094 128.019531 C 161.199219 124.269531 162.4375 120.289062 160.273438 116.835938 " fill-opacity="1" fill-rule="nonzero"/></g></g></g><g clip-path="url(#07362311a8)"><g clip-path="url(#1a2619f236)"><g clip-path="url(#c60c6b68c5)"><path fill="#ffffff" d="M 146.390625 102.292969 C 145.835938 99.984375 145.199219 97.878906 145.054688 95.484375 C 144.816406 91.480469 143.902344 87.511719 142.835938 83.644531 C 142.738281 83.292969 142.230469 83.476562 142.210938 83.785156 C 142.09375 85.605469 142.691406 87.425781 143.144531 89.175781 C 143.738281 91.46875 143.972656 93.679688 144.140625 96.035156 C 144.300781 98.335938 145.007812 100.4375 145.613281 102.648438 C 145.855469 103.527344 146.003906 104.414062 146.0625 105.320312 C 146.132812 106.488281 145.675781 107.597656 145.8125 108.789062 C 145.835938 109.007812 146.25 109.007812 146.261719 108.78125 C 146.320312 107.765625 146.746094 106.773438 146.792969 105.777344 C 146.847656 104.578125 146.667969 103.460938 146.390625 102.292969 " fill-opacity="1" fill-rule="nonzero"/></g></g></g></svg>